<svg xmlns="http://www.w3.org/2000/svg" viewBox="0 0 1080 760" width="1080" height="760" role="img" xmlns:c2pa="http://c2pa.org/manifest"><metadata><c2pa:manifest>AAAWgmp1bWIAAAAeanVtZGMycGEAEQAQgAAAqgA4m3EDYzJwYQAAABZcanVtYgAAAEdqdW1kYzJtYQARABCAAACqADibcQN1cm46YzJwYTpkMDkwM2JkMy1kNTI4LTQ4NDItYTU5MS00NzQzZTc0OGVjMmQAAAADl2p1bWIAAAApanVtZGMyYXMAEQAQgAAAqgA4m3EDYzJwYS5hc3NlcnRpb25zAAAAALxqdW1iAAAARGp1bWRjYm9yABEAEIAAAKoAOJtxE2MycGEuaW5ncmVkaWVudC52MwAAAAAYYzJzaF/ya4ZoWKmH9bAHyuavS/8AAABwY2JvcqNpZGM6Zm9ybWF0bWltYWdlL3N2Zyt4bWxqaW5zdGFuY2VJRHgseG1wOmlpZDplNjU1ZTE0ZS1mYWNmLTQ2MjUtOGE2Ni02M2JiNGYwZThjMDlscmVsYXRpb25zaGlwaHBhcmVudE9mAAAB4mp1bWIAAABBanVtZGNib3IAEQAQgAAAqgA4m3ETYzJwYS5hY3Rpb25zLnYyAAAAABhjMnNoeOAYJAysKV4uJ8O1/U4eIwAAAZljYm9yomdhY3Rpb25zgqJmYWN0aW9ua2MycGEub3BlbmVkanBhcmFtZXRlcnOha2luZ3JlZGllbnRzgaJjdXJseC1zZWxmI2p1bWJmPWMycGEuYXNzZXJ0aW9ucy9jMnBhLmluZ3JlZGllbnQudjNkaGFzaFgg+crw6Qalu1yLrG62Edc8XwuIR6Vfoh1wgDUcTn/ZMs2kZmFjdGlvbngdY29tLmFudGhyb3BpYy5jbGF1ZGUucHJvdmlkZWRqcGFyYW1ldGVyc6F4H2NvbS5hbnRocm9waWMub3JpZ2luLWNvbmZpZGVuY2VndW5rbm93bmtkZXNjcmlwdGlvbnhmQ2xhdWRlIHByb3ZpZGVkIHRoaXMgZmlsZSBhdCB0aGUgcmVxdWVzdCBvZiBhIHVzZXIgYW5kIG1heSBoYXZlIGNyZWF0ZWQgb3IgbW9kaWZpZWQgdGhlIGZpbGUgY29udGVudHMubXNvZnR3YXJlQWdlbnShZG5hbWVmQ2xhdWRlcmFsbEFjdGlvbnNJbmNsdWRlZPUAAADIanVtYgAAAEBqdW1kY2JvcgARABCAAACqADibcRNjMnBhLmhhc2guZGF0YQAAAAAYYzJzaD2r7U3Cod8JAjXNSH5Pk/4AAACAY2JvcqVjYWxnZnNoYTI1NmNwYWRNAAAAAAAAAAAAAAAAAGRoYXNoWCB5rZrGUC3enAMx6QI7PFEJjNNIXzbr96PQVap96tyc5WRuYW1lbmp1bWJmIG1hbmlmZXN0amV4Y2x1c2lvbnOBomVzdGFydBijZmxlbmd0aBkeBAAAAj5qdW1iAAAAJ2p1bWRjMmNsABEAEIAAAKoAOJtxA2MycGEuY2xhaW0udjIAAAACD2Nib3KlY2FsZ2ZzaGEyNTZpc2lnbmF0dXJleE1zZWxmI2p1bWJmPS9jMnBhL3VybjpjMnBhOmQwOTAzYmQzLWQ1MjgtNDg0Mi1hNTkxLTQ3NDNlNzQ4ZWMyZC9jMnBhLnNpZ25hdHVyZWppbnN0YW5jZUlEeCx4bXA6aWlkOmQ2NmE2ZDI0LWQxMjktNGNkMS04M2Y0LWJhZjI0MDRmODY4YnJjcmVhdGVkX2Fzc2VydGlvbnODomN1cmx4LXNlbGYjanVtYmY9YzJwYS5hc3NlcnRpb25zL2MycGEuaW5ncmVkaWVudC52M2RoYXNoWCD5yvDpBqW7XIusbrYR1zxfC4hHpV+iHXCANRxOf9kyzaJjdXJseCpzZWxmI2p1bWJmPWMycGEuYXNzZXJ0aW9ucy9jMnBhLmFjdGlvbnMudjJkaGFzaFggBp8tkxxvhKbuJqTOKXzPMXylm/0pdxFaFPC+qc38X0GiY3VybHgpc2VsZiNqdW1iZj1jMnBhLmFzc2VydGlvbnMvYzJwYS5oYXNoLmRhdGFkaGFzaFggAtuYgyDnO/819M7DgCv0b/fiQbM+HBw5Wg2Ukyv3DC50Y2xhaW1fZ2VuZXJhdG9yX2luZm+jZG5hbWVvQW50aHJvcGljIEZpbGVzZ3ZlcnNpb25lMS4wLjBrc3BlY1ZlcnNpb25lMi40LjAAABA4anVtYgAAAChqdW1kYzJjcwARABCAAACqADibcQNjMnBhLnNpZ25hdHVyZQAAABAIY2JvctKEWQISogEmGCFZAgowggIGMIIBjaADAgECAhRA5aAK7sI50L64g/oGQgU9Z1UTADAKBggqhkjOPQQDAzBJMRcwFQYDVQQKEw5BbnRocm9waWMsIFBCQzEuMCwGA1UEAxMlQW50aHJvcGljIENvbnRlbnQgQ3JlZGVudGlhbHMgUm9vdCBDQTAeFw0yNjA4MDcxODQzNTZaFw0yODA4MDYxOTQzNTZaMEQxFzAVBgNVBAoTDkFudGhyb3BpYywgUEJDMSkwJwYDVQQDEyBBbnRocm9waWMgQ2xhdWRlIENvbnRlbnQgU2lnbmluZzBZMBMGByqGSM49AgEGCCqGSM49AwEHA0IABJh6CmvLUBgFFNU0vUKlOVtE6djd17L5SuwX0LemFisBM3dkd/3cyjxFA3Qo5S46fX0/ihY0VZ7mfb9KF703t5OjWDBWMA4GA1UdDwEB/wQEAwIHgDAVBgNVHSUEDjAMBgorBgEEAYPoXgIBMAwGA1UdEwEB/wQCMAAwHwYDVR0jBBgwFoAUzlHiBIFOZFsj+OPEz5o+nMHXXMIwCgYIKoZIzj0EAwMDZwAwZAIwMXMdFJ4BetLLVY7ORuE9noqbbAZOZn/aArXyTwFAZfKrPzxF2vPoJNf1+UCdg1XGAjBwX1zd9WGqYkqmL5SFqw1QySjr1zJfpJM9+1rdDwSPLMOPOjKuiXjoU/pUUeG9RwmhY3BhZFkNngAAAAAAAAAAAAAAAAAAAAAAAAAAAAAAAAAAAAAAAAAAAAAAAAAAAAAAAAAAAAAAAAAAAAAAAAAAAAAAAAAAAAAAAAAAAAAAAAAAAAAAAAAAAAAAAAAAAAAAAAAAAAAAAAAAAAAAAAAAAAAAAAAAAAAAAAAAAAAAAAAAAAAAAAAAAAAAAAAAAAAAAAAAAAAAAAAAAAAAAAAAAAAAAAAAAAAAAAAAAAAAAAAAAAAAAAAAAAAAAAAAAAAAAAAAAAAAAAAAAAAAAAAAAAAAAAAAAAAAAAAAAAAAAAAAAAAAAAAAAAAAAAAAAAAAAAAAAAAAAAAAAAAAAAAAAAAAAAAAAAAAAAAAAAAAAAAAAAAAAAAAAAAAAAAAAAAAAAAAAAAAAAAAAAAAAAAAAAAAAAAAAAAAAAAAAAAAAAAAAAAAAAAAAAAAAAAAAAAAAAAAAAAAAAAAAAAAAAAAAAAAAAAAAAAAAAAAAAAAAAAAAAAAAAAAAAAAAAAAAAAAAAAAAAAAAAAAAAAAAAAAAAAAAAAAAAAAAAAAAAAAAAAAAAAAAAAAAAAAAAAAAAAAAAAAAAAAAAAAAAAAAAAAAAAAAAAAAAAAAAAAAAAAAAAAAAAAAAAAAAAAAAAAAAAAAAAAAAAAAAAAAAAAAAAAAAAAAAAAAAAAAAAAAAAAAAAAAAAAAAAAAAAAAAAAAAAAAAAAAAAAAAAAAAAAAAAAAAAAAAAAAAAAAAAAAAAAAAAAAAAAAAAAAAAAAAAAAAAAAAAAAAAAAAAAAAAAAAAAAAAAAAAAAAAAAAAAAAAAAAAAAAAAAAAAAAAAAAAAAAAAAAAAAAAAAAAAAAAAAAAAAAAAAAAAAAAAAAAAAAAAAAAAAAAAAAAAAAAAAAAAAAAAAAAAAAAAAAAAAAAAAAAAAAAAAAAAAAAAAAAAAAAAAAAAAAAAAAAAAAAAAAAAAAAAAAAAAAAAAAAAAAAAAAAAAAAAAAAAAAAAAAAAAAAAAAAAAAAAAAAAAAAAAAAAAAAAAAAAAAAAAAAAAAAAAAAAAAAAAAAAAAAAAAAAAAAAAAAAAAAAAAAAAAAAAAAAAAAAAAAAAAAAAAAAAAAAAAAAAAAAAAAAAAAAAAAAAAAAAAAAAAAAAAAAAAAAAAAAAAAAAAAAAAAAAAAAAAAAAAAAAAAAAAAAAAAAAAAAAAAAAAAAAAAAAAAAAAAAAAAAAAAAAAAAAAAAAAAAAAAAAAAAAAAAAAAAAAAAAAAAAAAAAAAAAAAAAAAAAAAAAAAAAAAAAAAAAAAAAAAAAAAAAAAAAAAAAAAAAAAAAAAAAAAAAAAAAAAAAAAAAAAAAAAAAAAAAAAAAAAAAAAAAAAAAAAAAAAAAAAAAAAAAAAAAAAAAAAAAAAAAAAAAAAAAAAAAAAAAAAAAAAAAAAAAAAAAAAAAAAAAAAAAAAAAAAAAAAAAAAAAAAAAAAAAAAAAAAAAAAAAAAAAAAAAAAAAAAAAAAAAAAAAAAAAAAAAAAAAAAAAAAAAAAAAAAAAAAAAAAAAAAAAAAAAAAAAAAAAAAAAAAAAAAAAAAAAAAAAAAAAAAAAAAAAAAAAAAAAAAAAAAAAAAAAAAAAAAAAAAAAAAAAAAAAAAAAAAAAAAAAAAAAAAAAAAAAAAAAAAAAAAAAAAAAAAAAAAAAAAAAAAAAAAAAAAAAAAAAAAAAAAAAAAAAAAAAAAAAAAAAAAAAAAAAAAAAAAAAAAAAAAAAAAAAAAAAAAAAAAAAAAAAAAAAAAAAAAAAAAAAAAAAAAAAAAAAAAAAAAAAAAAAAAAAAAAAAAAAAAAAAAAAAAAAAAAAAAAAAAAAAAAAAAAAAAAAAAAAAAAAAAAAAAAAAAAAAAAAAAAAAAAAAAAAAAAAAAAAAAAAAAAAAAAAAAAAAAAAAAAAAAAAAAAAAAAAAAAAAAAAAAAAAAAAAAAAAAAAAAAAAAAAAAAAAAAAAAAAAAAAAAAAAAAAAAAAAAAAAAAAAAAAAAAAAAAAAAAAAAAAAAAAAAAAAAAAAAAAAAAAAAAAAAAAAAAAAAAAAAAAAAAAAAAAAAAAAAAAAAAAAAAAAAAAAAAAAAAAAAAAAAAAAAAAAAAAAAAAAAAAAAAAAAAAAAAAAAAAAAAAAAAAAAAAAAAAAAAAAAAAAAAAAAAAAAAAAAAAAAAAAAAAAAAAAAAAAAAAAAAAAAAAAAAAAAAAAAAAAAAAAAAAAAAAAAAAAAAAAAAAAAAAAAAAAAAAAAAAAAAAAAAAAAAAAAAAAAAAAAAAAAAAAAAAAAAAAAAAAAAAAAAAAAAAAAAAAAAAAAAAAAAAAAAAAAAAAAAAAAAAAAAAAAAAAAAAAAAAAAAAAAAAAAAAAAAAAAAAAAAAAAAAAAAAAAAAAAAAAAAAAAAAAAAAAAAAAAAAAAAAAAAAAAAAAAAAAAAAAAAAAAAAAAAAAAAAAAAAAAAAAAAAAAAAAAAAAAAAAAAAAAAAAAAAAAAAAAAAAAAAAAAAAAAAAAAAAAAAAAAAAAAAAAAAAAAAAAAAAAAAAAAAAAAAAAAAAAAAAAAAAAAAAAAAAAAAAAAAAAAAAAAAAAAAAAAAAAAAAAAAAAAAAAAAAAAAAAAAAAAAAAAAAAAAAAAAAAAAAAAAAAAAAAAAAAAAAAAAAAAAAAAAAAAAAAAAAAAAAAAAAAAAAAAAAAAAAAAAAAAAAAAAAAAAAAAAAAAAAAAAAAAAAAAAAAAAAAAAAAAAAAAAAAAAAAAAAAAAAAAAAAAAAAAAAAAAAAAAAAAAAAAAAAAAAAAAAAAAAAAAAAAAAAAAAAAAAAAAAAAAAAAAAAAAAAAAAAAAAAAAAAAAAAAAAAAAAAAAAAAAAAAAAAAAAAAAAAAAAAAAAAAAAAAAAAAAAAAAAAAAAAAAAAAAAAAAAAAAAAAAAAAAAAAAAAAAAAAAAAAAAAAAAAAAAAAAAAAAAAAAAAAAAAAAAAAAAAAAAAAAAAAAAAAAAAAAAAAAAAAAAAAAAAAAAAAAAAAAAAAAAAAAAAAAAAAAAAAAAAAAAAAAAAAAAAAAAAAAAAAAAAAAAAAAAAAAAAAAAAAAAAAAAAAAAAAAAAAAAAAAAAAAAAAAAAAAAAAAAAAAAAAAAAAAAAAAAAAAAAAAAAAAAAAAAAAAAAAAAAAAAAAAAAAAAAAAAAAAAAAAAAAAAAAAAAAAAAAAAAAAAAAAAAAAAAAAAAAAAAAAAAAAAAAAAAAAAAAAAAAAAAAAAAAAAAAAAAAAAAAAAAAAAAAAAAAAAAAAAAAAAAAAAAAAAAAAAAAAAAAAAAAAAAAAAAAAAAAAAAAAAAAAAAAAAAAAAAAAAAAAAAAAAAAAAAAAAAAAAAAAAAAAAAAAAAAAAAAAAAAAAAAAAAAAAAAAAAAAAAAAAAAAAAAAAAAAAAAAAAAAAAAAAAAAAAAAAAAAAAAAAAAAAAAAAAAAAAAAAAAAAAAAAAAAAAAAAAAAAAAAAAAAAAAAAAAAAAAAAAAAAAAAAAAAAAAAAAAAAAAAAAAAAAAAAAAAAAAAAAAAAAAAAAAAAAAAAAAAAAAAAAAAAAAAAAAAAAAAAAAAAAAAAAAAAAAAAAAAAAAAAAAAAAAAAAAAAAAAAAAAAAAAAAAAAAAAAAAAAAAAAAAAAAAAAAAAAAAAAAAAAAAAAAAAAAAAAAAAAAAAAAAAAAAAAAAAAAAAAAAAAAAAAAAAAAAAAAAAAAAAAAAAAAAAAAAAAAAAAAAAAAAAAAAAAAAAAAAAAAAAAAAAAAAAAAAAAAAAAAAAAAAAAAAAAAAAAAAAAAAAAAAAAAAAAAAAAAAAAAAAAAAAAAAAAAAAAAAAAAAAAAAAAAAAAAAAAAAAAAAAAAAAAAAAAAAAAAAAAAAAAAAAAAAAAAAAAAAAAAAAAAAAAAAAAAAAAAAAAAAAAAAAAAAAAAAAAAAAAAAAAAAAAAAAAAAAAAAAAAAAAAAAAAAAAAAAAAAAAAAAAAAAAAAAAAAAAAAAAAAAAAAAAAAAAAAAAAAAAAAAAAAAAAAAAAAAAAAAAAAAAAAAAAAAAAAAAAAAAAAAAAAAAAAAAAAAAAAAAAAAAAAAAAAAAAAAAAAAAAAAAAAAAAAAAAAAAAAAAAAAAAAAAAAAAAAAAAAAAAAAAAAAAAAAAAAAAAAAAAAAAAAAAAAAAAAAAAAAAAAAAAAAAAAAAAAAAAAAAAAAAAAAAAAAAAAAAAAAAAAAAAAAAAAAAAAAAAAAAAAAAAAAAAAAAAAAAAAAAAAAAAAAAAAAAAAAAAAAAAAAAAAAAAAAAAAAAAAAAAAAAAAAAAAAAAAAAAAAAAAAAAAAAAAAAAAAAAAAAAAAAAAAAAAAAAAAAAAAAAAAAAAAAAAAAAAAAAAAAAAAAAAAAAAAAAAAAAAAAAAAAAAAAAAAAAAAAAAAAAAAAAAAAAAAAAAAAAAAAAAAAAAAAAAAAAAAAAAAAAAAAAAAAAAAAAAAAAAAAAAAAAAAAAAAAAAAAAAAAAAAAAAAAAAAAAAAAAAAAAAAAAAAAAAAAAAAAAAAAAAAAAAAAAAAAAAAAAAAAAAAAAAAAAAAAAAAAAAAAAAAAAAAAAAAAAAAAAAAAAAAAAAAAAAAAAAAAAAAAAAAAAAAAAAAAAAAAAAAAAAAAAAAAAAAAAAAAAAAAAAAAAAAPZYQDS/uzuFIslkYaUGYCymGTWrdzTSTY1e+zenwImJmx9o6hg+PSCtjuS0j4igMkwKh+69i37qfTqI7K6oPMyfj6o=</c2pa:manifest></metadata>
<title>Which road should you take</title>
<desc>A decision tree. First question: is startup actually hurting you? If no, stay where you are. If yes, turn on the ahead-of-time cache, then ask whether that was fast enough. If yes, you are done. If no, ask whether the process dies between bursts of traffic — for example a command-line tool, a serverless function, or scale-to-zero containers. If yes, go native and accept the metadata tax. If no, stay on the JVM and look for the latency somewhere else.</desc>
<rect width="1080" height="760" fill="#fffdf6"/>
<text x="540.0" y="56" font-family="Virgil, 'Comic Sans MS', 'Segoe Print', 'Bradley Hand', Chalkboard, cursive" font-size="30" text-anchor="middle" fill="#1e1e1e" font-weight="bold" font-style="normal" fill-opacity="1.0">Which road should you take?</text>
<text x="540.0" y="86" font-family="Virgil, 'Comic Sans MS', 'Segoe Print', 'Bradley Hand', Chalkboard, cursive" font-size="17" text-anchor="middle" fill="#1e1e1e" font-weight="normal" font-style="normal" fill-opacity="0.62">work down the list — the cheap answer is usually the right one</text>
<path d="M 150.9 129.3 L 487.2 131.1 L 486.3 196.3 L 151.6 198.3 Z" fill="#d0bfff" fill-opacity="1.0" stroke="none"/>
<path d="M 148.9 128.8 C 320.2 127.7, 319.4 131.2, 490.5 126.8 M 148.7 126.5 C 318.1 126.9, 319.1 130.9, 491.4 127.7" fill="none" stroke="#1e1e1e" stroke-width="2.2" stroke-linecap="round" stroke-opacity="1.0"/>
<path d="M 489.1 127.1 C 492.9 166.2, 489.1 162.1, 490.3 200.2 M 491.1 129.6 C 492.4 165.0, 488.2 165.9, 488.5 200.8" fill="none" stroke="#1e1e1e" stroke-width="2.2" stroke-linecap="round" stroke-opacity="1.0"/>
<path d="M 490.7 199.0 C 317.1 199.0, 318.9 199.3, 150.5 199.1 M 490.5 201.1 C 323.2 201.9, 318.8 197.9, 151.5 201.5" fill="none" stroke="#1e1e1e" stroke-width="2.2" stroke-linecap="round" stroke-opacity="1.0"/>
<path d="M 150.4 200.1 C 148.0 166.7, 150.6 165.3, 150.6 126.7 M 148.7 199.7 C 153.1 162.1, 149.7 165.9, 151.3 128.5" fill="none" stroke="#1e1e1e" stroke-width="2.2" stroke-linecap="round" stroke-opacity="1.0"/>
<text x="320.0" y="160" font-family="Virgil, 'Comic Sans MS', 'Segoe Print', 'Bradley Hand', Chalkboard, cursive" font-size="17" text-anchor="middle" fill="#1e1e1e" font-weight="bold" font-style="normal" fill-opacity="1.0">Is startup actually hurting you?</text>
<path d="M 662.3 135.4 L 957.7 133.3 L 956.2 195.0 L 661.3 192.5 Z" fill="#b2f2bb" fill-opacity="1.0" stroke="none"/>
<path d="M 659.5 132.7 C 810.0 133.8, 808.6 131.2, 961.1 131.9 M 660.4 132.4 C 807.7 133.4, 811.2 135.0, 958.5 130.8" fill="none" stroke="#1e1e1e" stroke-width="2.4" stroke-linecap="round" stroke-opacity="1.0"/>
<path d="M 960.9 131.2 C 959.0 160.9, 959.2 162.6, 960.8 197.6 M 959.0 130.5 C 957.1 164.7, 958.1 162.0, 958.8 197.2" fill="none" stroke="#1e1e1e" stroke-width="2.4" stroke-linecap="round" stroke-opacity="1.0"/>
<path d="M 961.0 195.4 C 811.2 196.2, 812.3 195.4, 659.0 195.9 M 960.1 196.7 C 809.8 193.7, 807.6 197.8, 659.9 196.7" fill="none" stroke="#1e1e1e" stroke-width="2.4" stroke-linecap="round" stroke-opacity="1.0"/>
<path d="M 660.8 197.4 C 657.9 166.3, 657.6 163.5, 660.6 132.3 M 658.9 195.6 C 661.4 164.3, 658.4 165.8, 659.4 131.8" fill="none" stroke="#1e1e1e" stroke-width="2.4" stroke-linecap="round" stroke-opacity="1.0"/>
<text x="810.0" y="172" font-family="Virgil, 'Comic Sans MS', 'Segoe Print', 'Bradley Hand', Chalkboard, cursive" font-size="17" text-anchor="middle" fill="#15803d" font-weight="bold" font-style="normal" fill-opacity="1.0">Stay where you are.</text>
<path d="M 490.7 165.0 C 542.4 162.6, 538.2 165.9, 588.6 164.3 M 489.6 163.7 C 538.2 162.3, 539.1 165.2, 591.0 163.7" fill="none" stroke="#1e1e1e" stroke-width="2.2" stroke-linecap="round" stroke-opacity="1.0"/>
<path d="M 589.7 164.6 C 621.5 163.9, 621.0 165.9, 651.0 163.4 M 589.5 163.3 C 620.1 163.9, 618.8 161.8, 651.0 164.0" fill="none" stroke="#1e1e1e" stroke-width="2.2" stroke-linecap="round" stroke-opacity="1.0"/>
<path d="M 651.9 164.3 C 646.3 161.1, 646.7 160.7, 639.9 159.2" fill="none" stroke="#1e1e1e" stroke-width="2.2" stroke-linecap="round" stroke-opacity="1.0"/>
<path d="M 652.1 164.4 C 645.1 166.8, 645.3 166.3, 640.2 169.1" fill="none" stroke="#1e1e1e" stroke-width="2.2" stroke-linecap="round" stroke-opacity="1.0"/>
<text x="560" y="152" font-family="Virgil, 'Comic Sans MS', 'Segoe Print', 'Bradley Hand', Chalkboard, cursive" font-size="15.5" text-anchor="end" fill="#1e1e1e" font-weight="bold" font-style="normal" fill-opacity="0.8">no</text>
<path d="M 320.1 205.0 C 321.6 227.2, 319.5 228.8, 320.4 252.0 M 320.1 203.4 C 318.9 228.9, 318.0 230.0, 319.8 252.7" fill="none" stroke="#1e1e1e" stroke-width="2.2" stroke-linecap="round" stroke-opacity="1.0"/>
<path d="M 320.2 251.8 C 321.6 245.5, 322.6 247.3, 325.9 240.5" fill="none" stroke="#1e1e1e" stroke-width="2.2" stroke-linecap="round" stroke-opacity="1.0"/>
<path d="M 319.6 251.5 C 317.1 246.2, 317.2 245.2, 314.5 239.6" fill="none" stroke="#1e1e1e" stroke-width="2.2" stroke-linecap="round" stroke-opacity="1.0"/>
<text x="336.0" y="226" font-family="Virgil, 'Comic Sans MS', 'Segoe Print', 'Bradley Hand', Chalkboard, cursive" font-size="15.5" text-anchor="start" fill="#1e1e1e" font-weight="bold" font-style="normal" fill-opacity="0.8">yes</text>
<path d="M 151.0 261.5 L 487.3 260.4 L 487.4 328.1 L 153.8 328.5 Z" fill="#a5d8ff" fill-opacity="1.0" stroke="none"/>
<path d="M 150.7 257.5 C 322.3 255.2, 320.4 260.6, 488.9 256.7 M 149.4 257.6 C 321.2 260.2, 317.0 259.5, 489.7 259.4" fill="none" stroke="#1e1e1e" stroke-width="2.2" stroke-linecap="round" stroke-opacity="1.0"/>
<path d="M 489.8 257.7 C 492.6 295.5, 492.6 293.5, 491.0 330.8 M 490.2 258.9 C 490.5 296.4, 492.4 291.6, 489.9 328.8" fill="none" stroke="#1e1e1e" stroke-width="2.2" stroke-linecap="round" stroke-opacity="1.0"/>
<path d="M 489.6 329.1 C 319.5 328.8, 318.5 329.6, 149.5 331.5 M 490.5 329.5 C 318.5 332.6, 317.9 331.6, 149.0 329.1" fill="none" stroke="#1e1e1e" stroke-width="2.2" stroke-linecap="round" stroke-opacity="1.0"/>
<path d="M 148.7 330.9 C 149.6 291.3, 147.4 295.9, 149.3 258.9 M 150.1 330.0 C 149.9 291.2, 150.6 292.8, 149.5 258.6" fill="none" stroke="#1e1e1e" stroke-width="2.2" stroke-linecap="round" stroke-opacity="1.0"/>
<text x="320.0" y="290" font-family="Virgil, 'Comic Sans MS', 'Segoe Print', 'Bradley Hand', Chalkboard, cursive" font-size="17" text-anchor="middle" fill="#1e1e1e" font-weight="bold" font-style="normal" fill-opacity="1.0">Turn on the AOT cache.</text>
<path d="M 320.8 334.1 C 320.9 361.5, 321.5 362.7, 320.6 387.2 M 320.1 334.2 C 320.2 362.3, 320.4 361.2, 320.6 387.5" fill="none" stroke="#1e1e1e" stroke-width="2.2" stroke-linecap="round" stroke-opacity="1.0"/>
<path d="M 320.4 388.6 C 322.9 381.2, 323.8 382.0, 325.0 375.6" fill="none" stroke="#1e1e1e" stroke-width="2.2" stroke-linecap="round" stroke-opacity="1.0"/>
<path d="M 320.0 388.4 C 317.2 381.3, 317.3 381.2, 315.1 375.7" fill="none" stroke="#1e1e1e" stroke-width="2.2" stroke-linecap="round" stroke-opacity="1.0"/>
<path d="M 153.7 396.0 L 487.1 397.8 L 488.5 463.0 L 152.5 464.0 Z" fill="#d0bfff" fill-opacity="1.0" stroke="none"/>
<path d="M 149.0 392.8 C 321.3 395.5, 320.6 393.0, 491.1 392.9 M 151.1 394.9 C 320.9 392.7, 317.9 391.4, 488.6 395.3" fill="none" stroke="#1e1e1e" stroke-width="2.2" stroke-linecap="round" stroke-opacity="1.0"/>
<path d="M 491.0 395.1 C 487.3 429.4, 488.7 427.1, 489.5 465.0 M 489.4 395.0 C 490.1 427.8, 487.0 427.3, 488.6 465.7" fill="none" stroke="#1e1e1e" stroke-width="2.2" stroke-linecap="round" stroke-opacity="1.0"/>
<path d="M 488.9 467.5 C 322.6 464.9, 318.4 468.4, 151.2 466.7 M 490.3 467.4 C 321.4 468.4, 317.9 464.5, 149.5 465.7" fill="none" stroke="#1e1e1e" stroke-width="2.2" stroke-linecap="round" stroke-opacity="1.0"/>
<path d="M 148.4 466.2 C 147.8 431.2, 151.0 427.5, 151.4 394.2 M 151.3 466.5 C 147.8 429.8, 149.1 428.3, 150.0 393.5" fill="none" stroke="#1e1e1e" stroke-width="2.2" stroke-linecap="round" stroke-opacity="1.0"/>
<text x="320.0" y="426" font-family="Virgil, 'Comic Sans MS', 'Segoe Print', 'Bradley Hand', Chalkboard, cursive" font-size="17" text-anchor="middle" fill="#1e1e1e" font-weight="bold" font-style="normal" fill-opacity="1.0">Fast enough now?</text>
<path d="M 663.0 401.0 L 959.0 402.0 L 957.4 460.2 L 662.1 459.3 Z" fill="#b2f2bb" fill-opacity="1.0" stroke="none"/>
<path d="M 660.2 399.5 C 809.0 400.0, 812.9 397.8, 958.5 397.9 M 658.7 398.3 C 811.8 397.8, 810.3 399.7, 960.3 398.6" fill="none" stroke="#1e1e1e" stroke-width="2.4" stroke-linecap="round" stroke-opacity="1.0"/>
<path d="M 958.5 397.2 C 962.8 428.6, 963.0 428.6, 960.6 463.5 M 959.8 396.9 C 961.2 432.9, 957.6 431.0, 960.3 461.7" fill="none" stroke="#1e1e1e" stroke-width="2.4" stroke-linecap="round" stroke-opacity="1.0"/>
<path d="M 960.3 461.3 C 811.2 462.8, 807.5 464.6, 658.5 463.4 M 959.7 461.9 C 812.9 461.8, 811.1 463.7, 660.2 461.8" fill="none" stroke="#1e1e1e" stroke-width="2.4" stroke-linecap="round" stroke-opacity="1.0"/>
<path d="M 661.4 460.9 C 660.7 429.2, 662.4 427.6, 659.5 399.4 M 659.2 460.6 C 658.7 429.6, 658.4 431.3, 660.5 398.0" fill="none" stroke="#1e1e1e" stroke-width="2.4" stroke-linecap="round" stroke-opacity="1.0"/>
<text x="810.0" y="438" font-family="Virgil, 'Comic Sans MS', 'Segoe Print', 'Bradley Hand', Chalkboard, cursive" font-size="17" text-anchor="middle" fill="#15803d" font-weight="bold" font-style="normal" fill-opacity="1.0">Done. Go home.</text>
<path d="M 490.8 429.6 C 540.4 427.9, 537.7 430.3, 591.1 428.6 M 488.8 428.7 C 542.0 428.7, 537.7 431.6, 588.9 429.6" fill="none" stroke="#1e1e1e" stroke-width="2.2" stroke-linecap="round" stroke-opacity="1.0"/>
<path d="M 590.7 431.1 C 620.7 432.2, 621.2 431.7, 651.0 429.3 M 589.4 429.9 C 621.1 431.4, 622.4 430.9, 652.4 429.4" fill="none" stroke="#1e1e1e" stroke-width="2.2" stroke-linecap="round" stroke-opacity="1.0"/>
<path d="M 652.4 430.6 C 645.4 426.3, 647.1 427.5, 640.3 424.4" fill="none" stroke="#1e1e1e" stroke-width="2.2" stroke-linecap="round" stroke-opacity="1.0"/>
<path d="M 652.1 430.4 C 646.3 431.6, 645.5 432.3, 640.4 435.2" fill="none" stroke="#1e1e1e" stroke-width="2.2" stroke-linecap="round" stroke-opacity="1.0"/>
<text x="560" y="418" font-family="Virgil, 'Comic Sans MS', 'Segoe Print', 'Bradley Hand', Chalkboard, cursive" font-size="15.5" text-anchor="end" fill="#1e1e1e" font-weight="bold" font-style="normal" fill-opacity="0.8">yes</text>
<path d="M 320.6 470.4 C 319.3 493.5, 318.0 493.4, 320.2 517.8 M 320.9 470.7 C 321.1 492.7, 319.4 494.4, 319.4 518.0" fill="none" stroke="#1e1e1e" stroke-width="2.2" stroke-linecap="round" stroke-opacity="1.0"/>
<path d="M 319.6 518.5 C 323.1 511.8, 322.1 512.9, 324.7 506.6" fill="none" stroke="#1e1e1e" stroke-width="2.2" stroke-linecap="round" stroke-opacity="1.0"/>
<path d="M 320.3 517.7 C 317.7 511.9, 316.9 512.6, 314.5 505.6" fill="none" stroke="#1e1e1e" stroke-width="2.2" stroke-linecap="round" stroke-opacity="1.0"/>
<text x="336.0" y="492" font-family="Virgil, 'Comic Sans MS', 'Segoe Print', 'Bradley Hand', Chalkboard, cursive" font-size="15.5" text-anchor="start" fill="#1e1e1e" font-weight="bold" font-style="normal" fill-opacity="0.8">no</text>
<path d="M 131.7 525.4 L 508.4 527.7 L 508.5 609.7 L 133.2 610.7 Z" fill="#d0bfff" fill-opacity="1.0" stroke="none"/>
<path d="M 128.5 523.4 C 319.0 525.7, 318.4 526.9, 509.5 524.7 M 129.8 524.3 C 320.4 522.2, 319.6 524.4, 510.4 525.0" fill="none" stroke="#1e1e1e" stroke-width="2.2" stroke-linecap="round" stroke-opacity="1.0"/>
<path d="M 508.6 525.1 C 509.2 570.9, 511.4 567.3, 509.4 613.3 M 510.6 522.4 C 508.8 567.4, 511.3 567.8, 508.7 612.3" fill="none" stroke="#1e1e1e" stroke-width="2.2" stroke-linecap="round" stroke-opacity="1.0"/>
<path d="M 510.4 612.8 C 322.1 613.6, 318.3 609.3, 131.1 610.7 M 509.0 610.7 C 319.9 610.6, 317.9 615.0, 130.2 613.6" fill="none" stroke="#1e1e1e" stroke-width="2.2" stroke-linecap="round" stroke-opacity="1.0"/>
<path d="M 130.1 611.2 C 133.1 568.1, 128.4 566.0, 131.3 523.7 M 128.5 613.0 C 132.2 567.4, 130.1 569.4, 129.4 524.7" fill="none" stroke="#1e1e1e" stroke-width="2.2" stroke-linecap="round" stroke-opacity="1.0"/>
<text x="320.0" y="556" font-family="Virgil, 'Comic Sans MS', 'Segoe Print', 'Bradley Hand', Chalkboard, cursive" font-size="17" text-anchor="middle" fill="#1e1e1e" font-weight="bold" font-style="normal" fill-opacity="1.0">Does the process die</text>
<text x="320.0" y="578" font-family="Virgil, 'Comic Sans MS', 'Segoe Print', 'Bradley Hand', Chalkboard, cursive" font-size="17" text-anchor="middle" fill="#1e1e1e" font-weight="bold" font-style="normal" fill-opacity="1.0">between bursts of traffic?</text>
<path d="M 663.0 538.1 L 956.5 537.8 L 956.0 597.9 L 663.0 598.4 Z" fill="#b2f2bb" fill-opacity="1.0" stroke="none"/>
<path d="M 659.8 536.7 C 810.3 537.1, 810.6 534.1, 960.2 537.1 M 658.6 537.0 C 812.6 534.0, 811.5 536.0, 960.6 536.0" fill="none" stroke="#1e1e1e" stroke-width="2.4" stroke-linecap="round" stroke-opacity="1.0"/>
<path d="M 958.7 534.8 C 961.8 567.9, 957.1 568.0, 958.5 599.0 M 961.5 536.9 C 959.1 566.3, 961.0 564.9, 959.4 599.9" fill="none" stroke="#1e1e1e" stroke-width="2.4" stroke-linecap="round" stroke-opacity="1.0"/>
<path d="M 959.9 601.4 C 812.1 602.9, 808.5 602.9, 660.8 600.5 M 961.3 600.0 C 810.0 603.2, 808.4 601.4, 658.8 600.1" fill="none" stroke="#1e1e1e" stroke-width="2.4" stroke-linecap="round" stroke-opacity="1.0"/>
<path d="M 660.8 600.3 C 658.4 570.3, 662.5 568.2, 659.3 537.3 M 658.6 599.3 C 659.1 568.5, 661.9 565.1, 658.6 535.0" fill="none" stroke="#1e1e1e" stroke-width="2.4" stroke-linecap="round" stroke-opacity="1.0"/>
<text x="810.0" y="562" font-family="Virgil, 'Comic Sans MS', 'Segoe Print', 'Bradley Hand', Chalkboard, cursive" font-size="17" text-anchor="middle" fill="#15803d" font-weight="bold" font-style="normal" fill-opacity="1.0">Go native.</text>
<text x="810.0" y="584" font-family="Virgil, 'Comic Sans MS', 'Segoe Print', 'Bradley Hand', Chalkboard, cursive" font-size="17" text-anchor="middle" fill="#15803d" font-weight="bold" font-style="normal" fill-opacity="1.0">The tax is worth it.</text>
<path d="M 510.7 566.8 C 549.1 570.6, 552.2 565.3, 590.6 566.5 M 509.7 569.2 C 548.6 566.8, 549.9 565.8, 589.0 567.9" fill="none" stroke="#1e1e1e" stroke-width="2.2" stroke-linecap="round" stroke-opacity="1.0"/>
<path d="M 589.2 569.0 C 619.4 566.4, 621.5 568.5, 652.6 568.2 M 588.9 569.0 C 621.6 569.8, 620.3 568.0, 651.7 567.5" fill="none" stroke="#1e1e1e" stroke-width="2.2" stroke-linecap="round" stroke-opacity="1.0"/>
<path d="M 651.5 568.0 C 645.7 566.2, 647.3 564.9, 640.6 563.2" fill="none" stroke="#1e1e1e" stroke-width="2.2" stroke-linecap="round" stroke-opacity="1.0"/>
<path d="M 652.4 567.7 C 647.2 570.4, 646.5 571.1, 640.7 573.8" fill="none" stroke="#1e1e1e" stroke-width="2.2" stroke-linecap="round" stroke-opacity="1.0"/>
<text x="578" y="556" font-family="Virgil, 'Comic Sans MS', 'Segoe Print', 'Bradley Hand', Chalkboard, cursive" font-size="15.5" text-anchor="end" fill="#1e1e1e" font-weight="bold" font-style="normal" fill-opacity="0.8">yes</text>
<path d="M 320.2 615.0 C 320.6 636.8, 322.0 635.6, 320.4 654.7 M 319.7 616.0 C 322.1 634.7, 319.9 636.7, 319.3 653.4" fill="none" stroke="#1e1e1e" stroke-width="2.2" stroke-linecap="round" stroke-opacity="1.0"/>
<path d="M 320.4 653.5 C 322.0 648.7, 322.9 648.9, 325.2 642.2" fill="none" stroke="#1e1e1e" stroke-width="2.2" stroke-linecap="round" stroke-opacity="1.0"/>
<path d="M 319.6 653.6 C 316.8 648.1, 317.0 647.0, 314.5 642.2" fill="none" stroke="#1e1e1e" stroke-width="2.2" stroke-linecap="round" stroke-opacity="1.0"/>
<text x="336.0" y="632" font-family="Virgil, 'Comic Sans MS', 'Segoe Print', 'Bradley Hand', Chalkboard, cursive" font-size="15.5" text-anchor="start" fill="#1e1e1e" font-weight="bold" font-style="normal" fill-opacity="0.8">no</text>
<path d="M 133.5 662.6 L 508.8 662.6 L 508.7 717.9 L 132.5 718.9 Z" fill="#ffec99" fill-opacity="1.0" stroke="none"/>
<path d="M 129.6 661.5 C 317.4 660.3, 318.8 662.0, 510.3 661.4 M 131.3 661.2 C 323.0 658.1, 322.1 660.6, 509.6 658.6" fill="none" stroke="#1e1e1e" stroke-width="2.4" stroke-linecap="round" stroke-opacity="1.0"/>
<path d="M 510.7 660.7 C 509.3 691.3, 511.2 693.1, 509.2 719.6 M 510.1 659.5 C 510.6 691.2, 507.0 688.1, 508.8 719.8" fill="none" stroke="#1e1e1e" stroke-width="2.4" stroke-linecap="round" stroke-opacity="1.0"/>
<path d="M 510.4 720.9 C 321.5 719.7, 320.6 721.2, 131.4 718.8 M 509.7 720.3 C 320.3 723.2, 322.4 718.4, 131.5 718.5" fill="none" stroke="#1e1e1e" stroke-width="2.4" stroke-linecap="round" stroke-opacity="1.0"/>
<path d="M 130.9 721.3 C 128.7 693.2, 128.0 691.3, 129.7 660.2 M 131.6 721.5 C 132.8 692.3, 129.5 689.2, 131.1 659.8" fill="none" stroke="#1e1e1e" stroke-width="2.4" stroke-linecap="round" stroke-opacity="1.0"/>
<text x="320" y="697" font-family="Virgil, 'Comic Sans MS', 'Segoe Print', 'Bradley Hand', Chalkboard, cursive" font-size="17" text-anchor="middle" fill="#b45309" font-weight="bold" font-style="normal" fill-opacity="1.0">Stay on the JVM — look elsewhere.</text>
</svg>
