<svg xmlns="http://www.w3.org/2000/svg" viewBox="0 0 1000 420" role="img" aria-labelledby="title desc"><title id="title">Self-confidence as reward</title><desc id="desc">Several sampled solutions receive confidence scores and high-confidence trajectories contribute a self-generated reward signal for policy training.</desc><defs><marker id="a" viewBox="0 0 10 10" refX="9" refY="5" markerWidth="8" markerHeight="8" orient="auto-start-reverse"><path d="M 0 0 L 10 5 L 0 10 z" fill="#5d702d"/></marker></defs><rect x="8" y="8" width="984" height="404" rx="28" fill="#f8faf2" stroke="#d9e2bd" stroke-width="3"/><path d="M35 55 C130 30 205 65 300 40" fill="none" stroke="#d9e2bd" stroke-width="3" stroke-dasharray="9 10"/><path d="M235 190 C265 190 265 105 295 105" fill="none" stroke="#5d702d" stroke-width="4" stroke-linecap="round" stroke-linejoin="round" marker-end="url(#a)"/><path d="M235 200 L295 210" fill="none" stroke="#5d702d" stroke-width="4" stroke-linecap="round" stroke-linejoin="round" marker-end="url(#a)"/><path d="M235 210 C265 210 265 315 295 315" fill="none" stroke="#5d702d" stroke-width="4" stroke-linecap="round" stroke-linejoin="round" marker-end="url(#a)"/><path d="M480 105 C550 105 550 180 595 180" fill="none" stroke="#5d702d" stroke-width="4" stroke-linecap="round" stroke-linejoin="round" marker-end="url(#a)"/><path d="M480 210 L595 210" fill="none" stroke="#5d702d" stroke-width="4" stroke-linecap="round" stroke-linejoin="round" marker-end="url(#a)"/><path d="M480 315 C550 315 550 225 595 225" fill="none" stroke="#5d702d" stroke-width="4" stroke-linecap="round" stroke-linejoin="round" marker-end="url(#a)"/><path d="M760 200 L810 200" fill="none" stroke="#5d702d" stroke-width="4" stroke-linecap="round" stroke-linejoin="round" marker-end="url(#a)"/><g transform="translate(55 150)"><rect x="2" y="3" width="180" height="100" rx="18" fill="#f8faf2" stroke="#5d702d" stroke-width="3"/><rect x="0" y="0" width="180" height="100" rx="18" fill="none" stroke="#242c12" stroke-width="2" stroke-dasharray="7 4"/><text x="90" y="42" text-anchor="middle" font-family="system-ui,sans-serif" font-size="19" font-weight="700" fill="#242c12">Sample</text><text x="90" y="70" text-anchor="middle" font-family="system-ui,sans-serif" font-size="13" fill="#5d702d">many solutions</text></g><g transform="translate(300 65)"><rect x="2" y="3" width="180" height="80" rx="18" fill="#ecf0df" stroke="#5d702d" stroke-width="3"/><rect x="0" y="0" width="180" height="80" rx="18" fill="none" stroke="#242c12" stroke-width="2" stroke-dasharray="0"/><text x="90" y="32" text-anchor="middle" font-family="system-ui,sans-serif" font-size="19" font-weight="700" fill="#242c12">42</text><text x="90" y="60" text-anchor="middle" font-family="system-ui,sans-serif" font-size="13" fill="#5d702d">0.94 confidence</text></g><g transform="translate(300 170)"><rect x="2" y="3" width="180" height="80" rx="18" fill="#f8faf2" stroke="#5d702d" stroke-width="3"/><rect x="0" y="0" width="180" height="80" rx="18" fill="none" stroke="#242c12" stroke-width="2" stroke-dasharray="7 4"/><text x="90" y="32" text-anchor="middle" font-family="system-ui,sans-serif" font-size="19" font-weight="700" fill="#242c12">38</text><text x="90" y="60" text-anchor="middle" font-family="system-ui,sans-serif" font-size="13" fill="#5d702d">0.31 confidence</text></g><g transform="translate(300 275)"><rect x="2" y="3" width="180" height="80" rx="18" fill="#ecf0df" stroke="#5d702d" stroke-width="3"/><rect x="0" y="0" width="180" height="80" rx="18" fill="none" stroke="#242c12" stroke-width="2" stroke-dasharray="0"/><text x="90" y="32" text-anchor="middle" font-family="system-ui,sans-serif" font-size="19" font-weight="700" fill="#242c12">42</text><text x="90" y="60" text-anchor="middle" font-family="system-ui,sans-serif" font-size="13" fill="#5d702d">0.88 confidence</text></g><g transform="translate(600 150)"><rect x="2" y="3" width="160" height="100" rx="18" fill="#f8faf2" stroke="#5d702d" stroke-width="3"/><rect x="0" y="0" width="160" height="100" rx="18" fill="none" stroke="#242c12" stroke-width="2" stroke-dasharray="7 4"/><text x="80" y="42" text-anchor="middle" font-family="system-ui,sans-serif" font-size="19" font-weight="700" fill="#242c12">Confidence</text><text x="80" y="70" text-anchor="middle" font-family="system-ui,sans-serif" font-size="13" fill="#5d702d">reward signal</text></g><g transform="translate(815 150)"><rect x="2" y="3" width="130" height="100" rx="18" fill="#ecf0df" stroke="#5d702d" stroke-width="3"/><rect x="0" y="0" width="130" height="100" rx="18" fill="none" stroke="#242c12" stroke-width="2" stroke-dasharray="0"/><text x="65" y="42" text-anchor="middle" font-family="system-ui,sans-serif" font-size="19" font-weight="700" fill="#242c12">Policy</text><text x="65" y="70" text-anchor="middle" font-family="system-ui,sans-serif" font-size="13" fill="#5d702d">update</text></g></svg>