<svg xmlns="http://www.w3.org/2000/svg" viewBox="0 0 760 440" role="img" aria-labelledby="title desc"><title id="title">EmbeddingGemma 2 media search assembly</title><desc id="desc">One raised white workbench holds three distinct media input slots, an embedding processor, a numerical readout and a search tablet. Animated packets enter the processor, reach search and highlight a matching result. Every component uses the same isometric grid and shared base height.</desc><style>@media(prefers-reduced-motion:reduce){.motion{display:none}}</style><rect width="760" height="440" rx="22" fill="white"/><g stroke="#1d1d1f" stroke-width="1.4" stroke-linejoin="round" stroke-linecap="round"><text x="25" y="32" fill="#1d1d1f" stroke="none" font-family="Arial,Helvetica,sans-serif" font-size="23" text-anchor="start">EmbeddingGemma 2</text><text x="735" y="32" fill="#6e6e73" stroke="none" font-family="Arial,Helvetica,sans-serif" font-size="14" text-anchor="end">Media → embeddings → search</text><polygon points="150.81,195.00 471.24,380.00 471.24,364.00 150.81,179.00" fill="white" stroke="#1d1d1f" /><polygon points="670.43,265.00 471.24,380.00 471.24,364.00 670.43,249.00" fill="white" stroke="#1d1d1f" /><polygon points="350.00,64.00 670.43,249.00 471.24,364.00 150.81,179.00" fill="white" stroke="#1d1d1f" /><polyline points="347.40,77.50 647.05,250.50" fill="none" stroke="#b3b3b3" stroke-width="0.7" /><polyline points="174.20,177.50 473.84,350.50" fill="none" stroke="#b3b3b3" stroke-width="0.7" /><polyline points="163.80,198.50 169.00,197.50" fill="none" stroke="#777" stroke-width="0.7" /><polyline points="181.13,208.50 186.32,207.50" fill="none" stroke="#777" stroke-width="0.7" /><polyline points="198.45,218.50 203.64,217.50" fill="none" stroke="#777" stroke-width="0.7" /><polyline points="215.77,228.50 220.96,227.50" fill="none" stroke="#777" stroke-width="0.7" /><polyline points="233.09,238.50 238.28,237.50" fill="none" stroke="#777" stroke-width="0.7" /><polyline points="250.41,248.50 255.60,247.50" fill="none" stroke="#777" stroke-width="0.7" /><polyline points="267.73,258.50 272.92,257.50" fill="none" stroke="#777" stroke-width="0.7" /><polyline points="285.05,268.50 290.24,267.50" fill="none" stroke="#777" stroke-width="0.7" /><polyline points="302.37,278.50 307.56,277.50" fill="none" stroke="#777" stroke-width="0.7" /><polyline points="319.69,288.50 324.89,287.50" fill="none" stroke="#777" stroke-width="0.7" /><polyline points="337.01,298.50 342.21,297.50" fill="none" stroke="#777" stroke-width="0.7" /><polyline points="354.33,308.50 359.53,307.50" fill="none" stroke="#777" stroke-width="0.7" /><polyline points="371.65,318.50 376.85,317.50" fill="none" stroke="#777" stroke-width="0.7" /><polyline points="388.97,328.50 394.17,327.50" fill="none" stroke="#777" stroke-width="0.7" /><polyline points="406.29,338.50 411.49,337.50" fill="none" stroke="#777" stroke-width="0.7" /><polyline points="423.61,348.50 428.81,347.50" fill="none" stroke="#777" stroke-width="0.7" /><polyline points="440.93,358.50 446.13,357.50" fill="none" stroke="#777" stroke-width="0.7" /><polyline points="458.25,368.50 463.45,367.50" fill="none" stroke="#777" stroke-width="0.7" /><polyline points="374.25,127.00 395.90,139.50 338.74,172.50 363.86,187.00" fill="none" stroke="#1d1d1f" stroke-width="2" /><polyline points="317.96,159.50 339.61,172.00 338.74,172.50 363.86,187.00" fill="none" stroke="#1d1d1f" stroke-width="2" /><polyline points="261.67,192.00 283.32,204.50 338.74,172.50 363.86,187.00" fill="none" stroke="#1d1d1f" stroke-width="2" /><polyline points="418.42,218.50 454.79,239.50 440.93,247.50 448.73,252.00" fill="none" stroke="#1d1d1f" stroke-width="2" /><polygon points="306.70,109.00 356.93,138.00 356.93,131.00 306.70,102.00" fill="white" stroke="#1d1d1f" /><polygon points="391.57,118.00 356.93,138.00 356.93,131.00 391.57,111.00" fill="white" stroke="#1d1d1f" /><polygon points="341.34,82.00 391.57,111.00 356.93,131.00 306.70,102.00" fill="white" stroke="#1d1d1f" /><polygon points="341.34,86.00 382.91,110.00 357.79,124.50 316.23,100.50" fill="white" stroke="#1d1d1f" /><polyline points="342.21,90.50 370.78,107.00" fill="none" stroke="#1d1d1f" stroke-width="1.3" /><polyline points="336.14,94.00 364.72,110.50" fill="none" stroke="#1d1d1f" stroke-width="1.3" /><polyline points="330.08,97.50 358.66,114.00" fill="none" stroke="#1d1d1f" stroke-width="1.3" /><g transform="translate(299.77 117.00) matrix(.8660254 .5 -.8660254 .5 0 0)"><text x="0" y="0" fill="#1d1d1f" stroke="none" font-family="Arial,Helvetica,sans-serif" font-size="11" text-anchor="start">Text</text></g><polygon points="250.41,141.50 300.64,170.50 300.64,163.50 250.41,134.50" fill="white" stroke="#1d1d1f" /><polygon points="335.28,150.50 300.64,170.50 300.64,163.50 335.28,143.50" fill="white" stroke="#1d1d1f" /><polygon points="285.05,114.50 335.28,143.50 300.64,163.50 250.41,134.50" fill="white" stroke="#1d1d1f" /><polygon points="285.05,118.50 326.62,142.50 301.50,157.00 259.93,133.00" fill="white" stroke="#1d1d1f" /><polyline points="268.59,132.00 295.44,129.50 292.84,143.00 310.16,144.00" fill="none" stroke="#1d1d1f" stroke-width="1.4" /><g transform="translate(243.48 149.50) matrix(.8660254 .5 -.8660254 .5 0 0)"><text x="0" y="0" fill="#1d1d1f" stroke="none" font-family="Arial,Helvetica,sans-serif" font-size="11" text-anchor="start">Image</text></g><polygon points="194.12,174.00 244.34,203.00 244.34,196.00 194.12,167.00" fill="white" stroke="#1d1d1f" /><polygon points="278.99,183.00 244.34,203.00 244.34,196.00 278.99,176.00" fill="white" stroke="#1d1d1f" /><polygon points="228.76,147.00 278.99,176.00 244.34,196.00 194.12,167.00" fill="white" stroke="#1d1d1f" /><polygon points="228.76,151.00 270.33,175.00 245.21,189.50 203.64,165.50" fill="white" stroke="#1d1d1f" /><polyline points="224.43,158.50 217.50,162.50" fill="none" stroke="#1d1d1f" stroke-width="1.3" /><polyline points="234.39,160.75 221.40,168.25" fill="none" stroke="#1d1d1f" stroke-width="1.3" /><polyline points="244.34,163.00 225.29,174.00" fill="none" stroke="#1d1d1f" stroke-width="1.3" /><polyline points="248.24,168.75 235.25,176.25" fill="none" stroke="#1d1d1f" stroke-width="1.3" /><polyline points="252.14,174.50 245.21,178.50" fill="none" stroke="#1d1d1f" stroke-width="1.3" /><g transform="translate(187.19 182.00) matrix(.8660254 .5 -.8660254 .5 0 0)"><text x="0" y="0" fill="#1d1d1f" stroke="none" font-family="Arial,Helvetica,sans-serif" font-size="11" text-anchor="start">Audio</text></g><polygon points="339.61,202.00 394.17,233.50 394.17,201.50 339.61,170.00" fill="white" stroke="#1d1d1f" /><polygon points="441.80,206.00 394.17,233.50 394.17,201.50 441.80,174.00" fill="white" stroke="#1d1d1f" /><polygon points="387.24,142.50 441.80,174.00 394.17,201.50 339.61,170.00" fill="white" stroke="#1d1d1f" /><g transform="translate(379.44 153.00) matrix(.8660254 .5 -.8660254 .5 0 0)"><text x="0" y="0" fill="#1d1d1f" stroke="none" font-family="Arial,Helvetica,sans-serif" font-size="14" text-anchor="start">Embed</text></g><g transform="translate(362.99 162.50) matrix(.8660254 .5 -.8660254 .5 0 0)"><text x="0" y="0" fill="#1d1d1f" stroke="none" font-family="Arial,Helvetica,sans-serif" font-size="14" text-anchor="start">model</text></g><polyline points="345.67,196.50 382.04,217.50" fill="none" stroke="#1d1d1f" stroke-width="1.5" /><polyline points="345.67,190.50 382.04,211.50" fill="none" stroke="#1d1d1f" stroke-width="1.5" /><polyline points="345.67,184.50 382.04,205.50" fill="none" stroke="#1d1d1f" stroke-width="1.5" /><polyline points="401.10,173.50 394.17,177.50" fill="none" stroke="#1d1d1f" stroke-width="1" /><polyline points="412.35,180.00 405.43,184.00" fill="none" stroke="#1d1d1f" stroke-width="1" /><polyline points="423.61,186.50 416.68,190.50" fill="none" stroke="#1d1d1f" stroke-width="1" /><polyline points="434.87,193.00 427.94,197.00" fill="none" stroke="#1d1d1f" stroke-width="1" /><polygon points="357.79,265.50 382.91,280.00 382.91,276.00 357.79,261.50" fill="white" stroke="#1d1d1f" /><polygon points="419.28,259.00 382.91,280.00 382.91,276.00 419.28,255.00" fill="white" stroke="#1d1d1f" /><polygon points="394.17,240.50 419.28,255.00 382.91,276.00 357.79,261.50" fill="white" stroke="#1d1d1f" /><g transform="translate(384.64 249.00) matrix(.8660254 .5 -.8660254 .5 0 0)"><text x="0" y="0" fill="#1d1d1f" stroke="none" font-family="Arial,Helvetica,sans-serif" font-size="9" text-anchor="start">0.2</text></g><g transform="translate(372.52 256.00) matrix(.8660254 .5 -.8660254 .5 0 0)"><text x="0" y="0" fill="#1d1d1f" stroke="none" font-family="Arial,Helvetica,sans-serif" font-size="9" text-anchor="start">−0.6</text></g><polygon points="395.90,283.50 491.16,338.50 491.16,328.50 395.90,273.50" fill="white" stroke="#1d1d1f" /><polygon points="615.00,267.00 491.16,338.50 491.16,328.50 615.00,257.00" fill="white" stroke="#1d1d1f" /><polygon points="519.74,202.00 615.00,257.00 491.16,328.50 395.90,273.50" fill="white" stroke="#1d1d1f" /><polygon points="519.74,206.00 606.34,256.00 492.03,322.00 405.43,272.00" fill="#1d1d1f" stroke="#1d1d1f" /><polygon points="512.81,214.00 590.76,259.00 498.09,312.50 420.15,267.50" fill="white" stroke="#1d1d1f" /><polyline points="546.59,224.50 566.51,236.00" fill="none" stroke="white" stroke-width="2" /><g transform="translate(502.42 228.00) matrix(.8660254 .5 -.8660254 .5 0 0)"><text x="0" y="0" fill="#1d1d1f" stroke="none" font-family="Arial,Helvetica,sans-serif" font-size="14" text-anchor="start">Search</text></g><g transform="translate(485.97 237.50) matrix(.8660254 .5 -.8660254 .5 0 0)"><text x="0" y="0" fill="#1d1d1f" stroke="none" font-family="Arial,Helvetica,sans-serif" font-size="12" text-anchor="start">“train”</text></g><polygon points="478.17,242.00 541.39,278.50 523.21,289.00 459.99,252.50" fill="white" stroke="#1d1d1f" /><g transform="translate(472.98 252.00) matrix(.8660254 .5 -.8660254 .5 0 0)"><text x="0" y="0" fill="#1d1d1f" stroke="none" font-family="Arial,Helvetica,sans-serif" font-size="11" text-anchor="start">Video</text></g><polygon points="454.79,255.50 518.01,292.00 499.82,302.50 436.60,266.00" fill="white" stroke="#1d1d1f" /><g transform="translate(449.59 265.50) matrix(.8660254 .5 -.8660254 .5 0 0)"><text x="0" y="0" fill="#1d1d1f" stroke="none" font-family="Arial,Helvetica,sans-serif" font-size="11" text-anchor="start">Photo</text></g><polyline points="441.80,286.00 462.58,298.00" fill="none" stroke="white" stroke-width="2" /><circle class="motion" r="3.5" fill="#1d1d1f" stroke="white" opacity="0"><animateMotion path="M374.25 127.00 L395.90 139.50 L338.74 172.50 L363.86 187.00" dur="8s" repeatCount="indefinite" calcMode="linear" keyPoints="0;0;1;1" keyTimes="0;0.03;0.33;1"/><animate attributeName="opacity" values="0;0;1;1;0;0" keyTimes="0;0.03;0.04;0.32;0.33;1" dur="8s" repeatCount="indefinite"/></circle><circle class="motion" r="3.5" fill="#1d1d1f" stroke="white" opacity="0"><animateMotion path="M317.96 159.50 L339.61 172.00 L338.74 172.50 L363.86 187.00" dur="8s" repeatCount="indefinite" calcMode="linear" keyPoints="0;0;1;1" keyTimes="0;0.055;0.33;1"/><animate attributeName="opacity" values="0;0;1;1;0;0" keyTimes="0;0.055;0.065;0.32;0.33;1" dur="8s" repeatCount="indefinite"/></circle><circle class="motion" r="3.5" fill="#1d1d1f" stroke="white" opacity="0"><animateMotion path="M261.67 192.00 L283.32 204.50 L338.74 172.50 L363.86 187.00" dur="8s" repeatCount="indefinite" calcMode="linear" keyPoints="0;0;1;1" keyTimes="0;0.08;0.33;1"/><animate attributeName="opacity" values="0;0;1;1;0;0" keyTimes="0;0.08;0.09;0.32;0.33;1" dur="8s" repeatCount="indefinite"/></circle><circle class="motion" r="3.5" fill="#1d1d1f" stroke="white" opacity="0"><animateMotion path="M418.42 218.50 L454.79 239.50 L440.93 247.50 L448.73 252.00" dur="8s" repeatCount="indefinite" calcMode="linear" keyPoints="0;0;1;1" keyTimes="0;0.43;0.75;1"/><animate attributeName="opacity" values="0;0;1;1;0;0" keyTimes="0;0.43;0.44;0.74;0.75;1" dur="8s" repeatCount="indefinite"/></circle><polygon points="478.17,241.00 541.39,277.50 523.21,288.00 459.99,251.50" fill="none" stroke="#1d1d1f" class="motion" stroke-width="3" opacity="0"><animate attributeName="opacity" values="0;0;1;1;0;0" keyTimes="0;.75;.78;.93;.97;1" dur="8s" repeatCount="indefinite"/></polygon><text x="25" y="411" fill="#1d1d1f" stroke="none" font-family="Arial,Helvetica,sans-serif" font-size="16" text-anchor="start">1  Media inputs</text><text x="275" y="411" fill="#1d1d1f" stroke="none" font-family="Arial,Helvetica,sans-serif" font-size="16" text-anchor="start">2  Numerical embeddings</text><text x="570" y="411" fill="#1d1d1f" stroke="none" font-family="Arial,Helvetica,sans-serif" font-size="16" text-anchor="start">3  Search matches</text></g></svg>